<?xml version="1.0" standalone="no"?>
<!DOCTYPE svg PUBLIC "-//W3C//DTD SVG 20010904//EN"
 "http://www.w3.org/TR/2001/REC-SVG-20010904/DTD/svg10.dtd">
<svg version="1.0" xmlns="http://www.w3.org/2000/svg"
 width="645.000000pt" height="771.000000pt" viewBox="0 0 645.000000 771.000000"
 preserveAspectRatio="xMidYMid meet">

<g transform="translate(0.000000,771.000000) scale(0.100000,-0.100000)"
fill="#000000" stroke="none">
<path d="M2915 7620 c-33 -5 -104 -23 -157 -41 -208 -67 -329 -197 -352 -377
-9 -68 6 -66 47 4 85 145 200 204 399 204 249 0 455 -84 624 -254 121 -122
200 -258 235 -404 18 -73 20 -108 16 -222 -5 -147 -24 -236 -77 -363 -59 -142
-113 -208 -431 -529 -319 -322 -379 -395 -459 -562 -54 -113 -67 -191 -51
-299 13 -87 36 -138 69 -156 18 -10 20 -5 24 72 8 122 37 178 151 294 51 53
159 145 242 207 83 62 220 164 305 228 175 130 285 234 368 347 295 397 322
977 66 1363 -148 223 -410 403 -679 469 -94 23 -255 32 -340 19z"/>
<path d="M1565 6785 c-266 -59 -494 -254 -605 -514 -113 -266 -103 -607 26
-880 144 -306 435 -530 832 -640 59 -16 166 -46 237 -66 247 -68 337 -133 386
-277 l17 -51 28 43 c60 90 38 248 -50 368 -78 105 -168 171 -466 337 -219 123
-304 180 -403 274 -95 91 -158 184 -199 293 -26 71 -31 101 -35 203 -9 211 42
360 162 481 101 101 236 157 380 157 160 1 325 -77 483 -227 74 -71 95 -87
103 -75 14 21 4 53 -53 169 -45 92 -63 116 -142 195 -76 75 -107 99 -186 138
-127 63 -226 87 -354 86 -56 0 -128 -7 -161 -14z"/>
<path d="M4929 4176 c-10 -10 -272 -37 -489 -51 -442 -29 -656 -36 -1500 -45
-1335 -15 -1893 -53 -2549 -174 -141 -27 -176 -42 -191 -82 -13 -32 -13 -136
0 -244 5 -46 14 -195 20 -330 17 -416 20 -471 36 -605 23 -189 92 -478 149
-620 15 -39 46 -104 68 -145 22 -41 52 -97 66 -124 14 -27 52 -78 85 -115 32
-36 78 -93 102 -126 67 -90 335 -385 427 -468 155 -140 320 -254 451 -312 44
-20 56 -30 56 -47 0 -21 -8 -25 -93 -40 -148 -28 -219 -53 -262 -95 -48 -47
-68 -93 -59 -141 17 -96 43 -111 300 -175 269 -68 397 -87 664 -99 266 -11
1085 -4 1285 11 330 26 819 93 926 127 155 49 227 156 169 252 -11 18 -34 41
-51 51 -34 21 -203 67 -379 104 -63 14 -133 32 -154 41 -53 22 -49 25 154 128
538 275 744 471 826 786 14 53 30 103 37 111 22 26 71 39 182 46 307 18 514
88 760 256 184 125 280 219 335 329 39 77 47 114 66 290 30 290 -5 480 -130
695 -60 103 -183 223 -276 268 -114 57 -211 69 -722 96 -64 3 -122 11 -128 17
-5 5 -21 80 -35 165 -40 244 -51 269 -110 269 -17 0 -34 -2 -36 -4z m479 -756
c78 -6 165 -15 192 -21 101 -22 233 -135 297 -256 51 -95 63 -157 63 -333 0
-259 -21 -322 -145 -438 -189 -177 -385 -263 -634 -279 l-104 -6 7 49 c4 27
12 78 17 114 5 36 12 308 15 605 4 297 10 548 15 557 10 19 37 25 94 21 22 -2
104 -8 183 -13z"/>
</g>
</svg>
